# xmcd
#
# Track frame offsets:
#	150
#	3685
#	22587
#	41772
#	67475
#	83180
#	99697
#	122255
#	144077
#	168582
#
# Disc length: 2602 seconds
#
# Revision: 1
# Processed by: cddbd v1.5.1PL0 Copyright (c) Steve Scherf et al.
# Submitted via: CDex 1.50Beta5
#
DISCID=7d0a280a
DTITLE=山根康広 - VERY BEST of THE LIVE-Roll Over- Disc 2
DYEAR=1999
DGENRE=
TTITLE0=BORN IN 66 THEME
TTITLE1=LOVER
TTITLE2=KISHIMU想い
TTITLE3=銀の指環
TTITLE4=FINAL CHANCE
TTITLE5=STAY WITH ME
TTITLE6=恋という名の翼
TTITLE7=TRUE LOVE
TTITLE8=YELLを君に
TTITLE9=STAGE
EXTD=
EXTT0=
EXTT1=
EXTT2=
EXTT3=
EXTT4=
EXTT5=
EXTT6=
EXTT7=
EXTT8=
EXTT9=
PLAYORDER=
